<svg preserveAspectRatio="none" width="100%" height="100%" overflow="visible" style="display: block;" viewBox="0 0 44 40" fill="none" xmlns="http://www.w3.org/2000/svg">
<path id="Icon" d="M30 38V6C30 4.93913 29.5786 3.92172 28.8284 3.17157C28.0783 2.42143 27.0609 2 26 2H18C16.9391 2 15.9217 2.42143 15.1716 3.17157C14.4214 3.92172 14 4.93913 14 6V38M6 10H38C40.2091 10 42 11.7909 42 14V34C42 36.2091 40.2091 38 38 38H6C3.79086 38 2 36.2091 2 34V14C2 11.7909 3.79086 10 6 10Z" stroke="var(--stroke-0, #1E1E1E)" stroke-width="4" stroke-linecap="round" stroke-linejoin="round"/>
</svg>
